<svg xmlns="http://www.w3.org/2000/svg"  viewBox="0 0 48 48" width="480px" height="480px"><path fill="#ef4823" d="M23.898,2.722c-0.559,2.063-0.346,4.202,0.059,6.3c0.797,4.14,0.587,8.393,0.516,12.606 c-0.006,0.342-0.007,0.7,0.146,1.007c0.248,0.497,0.856,0.741,1.421,0.728c0.564-0.013,1.1-0.233,1.619-0.449 c2.373-0.99,4.879-2.085,6.318-4.184c1.057-1.542,1.4-3.448,1.518-5.303c0.051-0.801,0.064-1.614-0.112-2.398 c-0.193-0.862-0.607-1.66-1.069-2.418c-1.123-1.842-2.579-3.527-4.436-4.661C28.02,2.817,26.032,2.25,23.898,2.722z"/><path fill="#4b7bb2" d="M24.959,23.505c6.4-0.719,12.801-1.438,19.219-1.961c0.264-0.022,0.547-0.039,0.777,0.093 c0.347,0.199,0.442,0.653,0.469,1.053c0.185,2.791-1.206,5.416-2.555,7.864c-0.627,1.138-1.303,2.328-2.418,2.991 c-0.763,0.454-1.662,0.615-2.544,0.712c-2.645,0.291-5.403,0.061-7.804-1.089c-2.401-1.149-4.4-3.304-4.969-5.911 c-0.275-1.259-0.216-2.563-0.155-3.85"/><path fill="#38b47b" d="M24.951,23.618c-0.844,7.027-1.108,14.128-0.789,21.2c-1.213,1.015-3.014,0.448-4.458-0.174 c-1.255-0.54-2.528-1.104-3.555-2.018c-2.029-1.806-2.794-4.819-2.313-7.525s2.07-5.109,4.051-6.969s4.347-3.234,6.732-4.507"/><path fill="#febf10" d="M2.664,24.252c7.08,0.735,14.849,0.466,21.87-0.709c-0.186-1.399-0.474-2.785-0.862-4.142 c-0.236-0.828-0.513-1.653-0.952-2.393c-1.036-1.745-2.887-2.863-4.8-3.536c-2.482-0.873-5.273-1.096-7.728-0.15 c-2,0.771-3.665,2.274-4.878,4.043c-1.213,1.769-2,3.799-2.583,5.864C2.636,23.564,2.548,23.925,2.664,24.252z"/><path fill="#010101" d="M23.416,2.589c-0.507,1.974-0.392,3.991-0.048,5.982c0.372,2.158,0.619,4.291,0.667,6.484 c0.049,2.192-0.053,4.381-0.063,6.573c-0.003,0.758,0.144,1.491,0.839,1.913c0.698,0.425,1.539,0.369,2.288,0.122 c1.593-0.526,3.235-1.293,4.648-2.196c1.417-0.906,2.62-2.102,3.306-3.657c0.743-1.683,1.006-3.638,0.973-5.469 c-0.036-1.948-0.945-3.62-2.065-5.165c-2.323-3.204-6.078-5.783-10.195-4.937c-0.63,0.129-0.363,1.094,0.266,0.964 c3.327-0.684,6.47,1.3,8.522,3.776c0.986,1.19,2.009,2.654,2.348,4.182c0.36,1.627,0.085,3.614-0.378,5.2 c-0.91,3.118-3.598,4.621-6.402,5.819c-0.683,0.292-1.483,0.745-2.252,0.678c-1.15-0.1-0.895-1.381-0.878-2.204 c0.038-1.866,0.087-3.734,0.045-5.6c-0.045-1.986-0.197-3.97-0.552-5.927c-0.379-2.094-0.641-4.18-0.103-6.274 C24.54,2.231,23.576,1.965,23.416,2.589z"/><path fill="#010101" d="M24.959,24.005c3.815-0.429,7.631-0.857,11.45-1.244c1.93-0.196,3.862-0.381,5.794-0.55 c0.411-0.036,0.823-0.071,1.234-0.106c0.411-0.034,1.202-0.276,1.417,0.198c0.134,0.295,0.089,0.735,0.083,1.045 c-0.01,0.536-0.078,1.067-0.194,1.591c-0.374,1.698-1.165,3.262-1.989,4.78c-0.722,1.331-1.457,2.929-2.919,3.584 c-1.491,0.669-3.44,0.64-5.04,0.534c-1.71-0.112-3.43-0.526-4.939-1.355c-1.446-0.795-2.701-1.963-3.505-3.412 c-0.981-1.767-0.967-3.698-0.875-5.663c0.03-0.643-0.97-0.642-1,0C24.389,25.329,24.39,27.218,25.2,29 c0.665,1.463,1.766,2.698,3.054,3.644c2.98,2.189,7.142,2.655,10.702,1.963c1.775-0.345,2.95-1.431,3.86-2.945 c0.966-1.608,1.88-3.315,2.501-5.088c0.315-0.901,0.533-1.836,0.602-2.789c0.054-0.736,0.119-1.747-0.423-2.337 c-0.601-0.654-1.651-0.376-2.428-0.31c-1.111,0.094-2.221,0.194-3.33,0.298c-4.932,0.464-9.855,1.017-14.778,1.57 C24.327,23.077,24.32,24.077,24.959,24.005L24.959,24.005z"/><path fill="#010101" d="M24.451,23.618c-0.837,7.033-1.101,14.124-0.789,21.2c0.083-0.144,0.165-0.288,0.248-0.432 c-1.625,1.252-4.187-0.185-5.721-0.992c-1.856-0.975-3.158-2.466-3.706-4.506c-1.093-4.067,1.115-8.044,4.083-10.7 c1.881-1.684,4.09-2.946,6.306-4.131c0.568-0.304,0.063-1.167-0.505-0.863c-3.249,1.738-6.469,3.7-8.715,6.692 c-1.996,2.659-3.026,6.086-2.108,9.359c0.427,1.522,1.266,2.943,2.5,3.945c1.357,1.103,3.132,1.914,4.804,2.413 c0.741,0.221,1.542,0.353,2.311,0.212c0.332-0.061,0.663-0.178,0.954-0.35c0.4-0.237,0.549-0.425,0.539-0.892 c-0.047-2.141-0.131-4.277-0.117-6.42c0.032-4.858,0.343-9.71,0.917-14.534C25.526,22.981,24.526,22.986,24.451,23.618 L24.451,23.618z"/><path fill="#010101" d="M2.664,24.752c7.316,0.748,14.751,0.475,22.003-0.727c0.29-0.048,0.383-0.372,0.349-0.615 c-0.187-1.361-0.458-2.707-0.83-4.029c-0.315-1.119-0.705-2.233-1.403-3.175c-1.295-1.746-3.311-2.806-5.357-3.42 c-2.339-0.703-4.946-0.843-7.265,0.016c-2.065,0.766-3.765,2.229-5.054,3.993c-0.801,1.096-1.421,2.311-1.932,3.567 c-0.279,0.687-0.523,1.387-0.74,2.096c-0.196,0.64-0.411,1.259-0.254,1.927c0.147,0.626,1.112,0.361,0.964-0.266 c-0.119-0.505,0.169-1.128,0.32-1.608c0.178-0.566,0.372-1.126,0.591-1.677c0.42-1.058,0.936-2.082,1.565-3.031 c1.083-1.635,2.569-3.055,4.374-3.86c2.078-0.927,4.463-0.902,6.634-0.34c1.877,0.485,3.784,1.349,5.073,2.843 c0.818,0.949,1.222,2.126,1.551,3.315c0.356,1.286,0.617,2.594,0.798,3.916c0.116-0.205,0.233-0.41,0.349-0.615 c-7.161,1.187-14.516,1.429-21.737,0.691C2.025,23.686,2.029,24.687,2.664,24.752z"/></svg>