<svg xmlns="http://www.w3.org/2000/svg" width="300" height="260" viewBox="0 0 350 295.7300754480952">
    <defs>
        <linearGradient id="SvgjsLinearGradient2915">
            <stop stop-color="#e07272" offset="0"/>
            <stop stop-color="#fff" offset="1"/>
            <stop stop-color="#0f0f0f" offset="2"/>
            <stop stop-color="#fff" offset="1"/>
        </linearGradient>
    </defs>

    <g transform="matrix(4.375,0,0,4.375,35,-35)" fill="#ff6a00d1">
        <path d="M43,35V49h-.754A19.95,19.95,0,0,0,33,51.273V40h1a3,3,0,0,0,3-3V35.345A17.974,17.974,0,0,1,40.471,35ZM29,36h6v1a1,1,0,0,1-1,1H30a1,1,0,0,1-1-1Zm3.015-8.135L34.055,31h-4.1Zm-1.183-5.478a1.487,1.487,0,0,1-.1-1.668A1.45,1.45,0,0,1,32,20a1.469,1.469,0,0,1,1.292.759,1.5,1.5,0,0,1-.108,1.682l-1.163,1.772ZM24,22.441V22a8,8,0,1,1,16,0,11.4,11.4,0,0,1-3.849,8.553l-2.939-4.513,1.613-2.458a3.487,3.487,0,0,0,.158-3.895,3.478,3.478,0,1,0-5.778,3.857l1.62,2.49-3.156,4.807A11.489,11.489,0,0,1,24,22.441ZM29,33h6v1H29V33Zm-8,2h2.529A17.974,17.974,0,0,1,27,35.345V37a3,3,0,0,0,3,3h1V51.273A19.95,19.95,0,0,0,21.754,49H21Zm-4,2h2V50a1,1,0,0,0,1,1h1.754a17.95,17.95,0,0,1,5.9,1H17ZM47,52H36.344a17.95,17.95,0,0,1,5.9-1H44a1,1,0,0,0,1-1V36.189l2-.125Z"></path>
        <rect x="31" y="8" width="2" height="2"/>
        <rect x="20.394" y="12.394" width="2" height="2" transform="translate(-3.205 19.05) rotate(-45)"/>
        <rect x="16" y="23" width="2" height="2"/>
        <rect x="46" y="23" width="2" height="2"/>
        <rect x="41.607" y="12.394" width="2" height="2" transform="translate(3.008 34.05) rotate(-45)"/>
    </g>

    <g transform="matrix(2.7539974511451986,0,0,2.7539974511451986,-3.4149548958717353,180.83331680942067)" fill="url(#SvgjsLinearGradient2915)">
        <path d="M1.24 33.28 l0 -14.56 c0 -4.48 2.36 -7.04 6.68 -7.04 s6.68 2.56 6.68 7.04 l0 14.56 c0 1.56 -0.28 2.88 -0.84 3.92 c0.2 0.52 0.52 0.6 1.24 0.6 l0.4 0 l0 3.92 l-0.6 0 c-1.96 0 -3.2 -0.72 -3.8 -1.92 c-0.88 0.32 -1.92 0.52 -3.08 0.52 c-4.32 0 -6.68 -2.56 -6.68 -7.04 z M5.64 18.44 l0 15.12 c0 2 0.88 2.76 2.28 2.76 s2.28 -0.76 2.28 -2.76 l0 -15.12 c0 -2 -0.88 -2.76 -2.28 -2.76 s-2.28 0.76 -2.28 2.76 z M21.568 12 l4.4 0 l0 21.6 c0 2 0.88 2.72 2.28 2.72 s2.28 -0.72 2.28 -2.72 l0 -21.6 l4.16 0 l0 21.32 c0 4.48 -2.24 7.04 -6.56 7.04 s-6.56 -2.56 -6.56 -7.04 l0 -21.32 z M42.016 40 l0 -28 l4.4 0 l0 28 l-4.4 0 z M53.664 12 l12.48 0 l0 3.92 l-8.36 20.08 l8.36 0 l0 4 l-12.88 0 l0 -3.92 l8.36 -20.08 l-7.96 0 l0 -4 z M77.472 28 l0 12 l-4.4 0 l0 -28 l4.4 0 l0 12 l5 0 l0 -12 l4.48 0 l0 28 l-4.48 0 l0 -12 l-5 0 z M94.28 12 l4.4 0 l0 21.6 c0 2 0.88 2.72 2.28 2.72 s2.28 -0.72 2.28 -2.72 l0 -21.6 l4.16 0 l0 21.32 c0 4.48 -2.24 7.04 -6.56 7.04 s-6.56 -2.56 -6.56 -7.04 l0 -21.32 z M121.368 12 c4.56 0 6.52 2.12 6.52 6.44 l0 1 c0 2.88 -0.88 4.68 -2.84 5.6 l0 0.08 c2.36 0.92 3.28 3 3.28 5.96 l0 2.28 c0 4.32 -2.28 6.64 -6.68 6.64 l-6.92 0 l0 -28 l6.64 0 z M121.368 17.44 c0 -2.32 -1.16 -3.48 -3.4 -3.48 s-3.4 1.16 -3.4 3.48 l0 1.72 l6.8 0 l0 -1.72 z M124.288 25.48 c0 -2.16 -1.28 -3.28 -3.56 -3.28 s-3.52 1.12 -3.52 3.28 l0 2.4 l7.04 0 l0 -2.4 z"></path>
    </g>
</svg>
